<?xml version="1.0" encoding="UTF-8" standalone="no"?>
<!-- Created with Inkscape (http://www.inkscape.org/) -->

<svg
   width="981.95001"
   height="981.95001"
   viewBox="0 0 259.80768 259.80768"
   version="1.1"
   id="svg1"
   xml:space="preserve"
   inkscape:version="1.4.4 (dcaf3e7d9e, 2026-05-05)"
   sodipodi:docname="lce2je_logo_v2.svg"
   xmlns:inkscape="http://www.inkscape.org/namespaces/inkscape"
   xmlns:sodipodi="http://sodipodi.sourceforge.net/DTD/sodipodi-0.dtd"
   xmlns="http://www.w3.org/2000/svg"
   xmlns:svg="http://www.w3.org/2000/svg"><sodipodi:namedview
     id="namedview1"
     pagecolor="#ffffff"
     bordercolor="#000000"
     borderopacity="0.25"
     inkscape:showpageshadow="2"
     inkscape:pageopacity="0.0"
     inkscape:pagecheckerboard="0"
     inkscape:deskcolor="#d1d1d1"
     inkscape:document-units="mm"
     showgrid="true"
     showguides="true"
     inkscape:zoom="0.59579173"
     inkscape:cx="489.26493"
     inkscape:cy="537.10044"
     inkscape:window-width="1920"
     inkscape:window-height="1172"
     inkscape:window-x="0"
     inkscape:window-y="0"
     inkscape:window-maximized="1"
     inkscape:current-layer="layer1"><inkscape:grid
       type="axonomgrid"
       id="grid1"
       units="mm"
       originx="0"
       originy="0"
       spacingx="1"
       spacingy="1"
       empcolor="#0099e5"
       empopacity="0.30196078"
       color="#0099e5"
       opacity="0.14901961"
       empspacing="5"
       dotted="false"
       gridanglex="30"
       gridanglez="30"
       enabled="true"
       visible="true" /></sodipodi:namedview><defs
     id="defs1" /><g
     inkscape:label="Layer 1"
     inkscape:groupmode="layer"
     id="layer1"><g
       id="g35"
       transform="translate(283.62325,3.7499987)"><g
         id="g34"><path
           style="opacity:1;fill:none;fill-opacity:1;stroke:#000000;stroke-width:0.79375;stroke-dasharray:none;stroke-opacity:1"
           d="M 129.90377,0 238.15692,62.499983 129.90377,124.99996 21.650629,62.499983 Z"
           id="path11" /><path
           style="opacity:1;fill:none;fill-opacity:1;stroke:#000000;stroke-width:0.79375;stroke-dasharray:none;stroke-opacity:1"
           d="M 238.15692,62.499983 V 192.49994 L 129.90377,254.99993 21.650629,192.49994 V 62.499983 L 129.90377,124.99996 Z"
           id="path12" /><path
           style="opacity:1;fill:none;fill-opacity:1;stroke:#000000;stroke-width:0.79375;stroke-dasharray:none;stroke-opacity:1"
           d="M 129.90377,254.99993 V 124.99996 Z"
           id="path13" /></g><path
         style="opacity:1;fill:none;fill-opacity:1;stroke:#000000;stroke-width:0.79375;stroke-dasharray:none;stroke-opacity:1"
         d="M 25.980755,69.999981 V 189.99995 l 99.592895,57.49998 V 127.49996 Z"
         id="path14" /><path
         style="opacity:1;fill:none;fill-opacity:1;stroke:#000000;stroke-width:0.79375;stroke-dasharray:none;stroke-opacity:1"
         d="M 30.310881,62.499983 129.90377,119.99996 229.49666,62.499983 129.90377,4.9999987 Z"
         id="path15" /><path
         style="opacity:1;fill:none;fill-opacity:1;stroke:#000000;stroke-width:0.79375;stroke-dasharray:none;stroke-opacity:1"
         d="m 134.2339,127.49996 v 119.99997 l 99.59289,-57.49998 V 69.999981 Z"
         id="path16" /></g><g
       id="g55-7"
       transform="translate(283.62325,3.7499934)"><path
         style="opacity:1;fill:none;fill-opacity:1;stroke:#000000;stroke-width:0.79375;stroke-dasharray:none;stroke-opacity:1"
         d="M 30.310881,77.499976 V 187.49995 l 90.932639,52.49998 V 214.99994 L 51.96151,174.99995 V 89.999975 Z"
         id="path17-9" /><path
         style="opacity:1;fill:none;fill-opacity:1;stroke:#000000;stroke-width:0.79375;stroke-dasharray:none;stroke-opacity:1"
         d="m 30.310881,77.499976 4.330125,-2.499997 z"
         id="path44-2" /><path
         style="opacity:1;fill:none;fill-opacity:1;stroke:#000000;stroke-width:0.79375;stroke-dasharray:none;stroke-opacity:1"
         d="m 51.96151,89.999975 4.330125,-2.5 z"
         id="path45-0" /><path
         style="opacity:1;fill:none;fill-opacity:1;stroke:#000000;stroke-width:0.79375;stroke-dasharray:none;stroke-opacity:1"
         d="m 51.96151,174.99995 73.61214,-42.49999 z"
         id="path46-2" /><path
         style="opacity:1;fill:none;fill-opacity:1;stroke:#000000;stroke-width:0.79375;stroke-dasharray:none;stroke-opacity:1"
         d="m 121.24352,214.99994 4.33013,-2.5 z"
         id="path47-3" /><path
         style="opacity:1;fill:none;fill-opacity:1;stroke:#000000;stroke-width:0.79375;stroke-dasharray:none;stroke-opacity:1"
         d="m 121.24352,239.99993 4.33013,-2.5 z"
         id="path48-7" /></g><g
       id="g56-8"
       transform="translate(283.62324,3.7499934)"><path
         style="opacity:1;fill:none;fill-opacity:1;stroke:#000000;stroke-width:0.79375;stroke-dasharray:none;stroke-opacity:1"
         d="M 229.49666,77.499976 V 187.49995 l -90.93264,52.49998 v -49.99998 l 21.65063,-12.5 v 24.99999 l 47.63139,-27.49999 V 89.999975 Z"
         id="path25-9" /><path
         style="opacity:1;fill:none;fill-opacity:1;stroke:#000000;stroke-width:0.79375;stroke-dasharray:none;stroke-opacity:1"
         d="m 207.84604,89.999975 -4.33013,-2.5 z"
         id="path49-7" /><path
         style="opacity:1;fill:none;fill-opacity:1;stroke:#000000;stroke-width:0.79375;stroke-dasharray:none;stroke-opacity:1"
         d="m 225.16654,74.999979 4.33012,2.499997 z"
         id="path50-3" /><path
         style="opacity:1;fill:none;fill-opacity:1;stroke:#000000;stroke-width:0.79375;stroke-dasharray:none;stroke-opacity:1"
         d="M 207.84604,174.99995 134.2339,132.49996 Z"
         id="path51-6" /><path
         style="opacity:1;fill:none;fill-opacity:1;stroke:#000000;stroke-width:0.79375;stroke-dasharray:none;stroke-opacity:1"
         d="m 138.56402,189.99995 -4.33012,-2.5 z"
         id="path52-1" /><path
         style="opacity:1;fill:none;fill-opacity:1;stroke:#000000;stroke-width:0.79375;stroke-dasharray:none;stroke-opacity:1"
         d="m 160.21465,177.49995 -25.98075,-15 z"
         id="path53-2" /><path
         style="opacity:1;fill:none;fill-opacity:1;stroke:#000000;stroke-width:0.79375;stroke-dasharray:none;stroke-opacity:1"
         d="m 138.56402,239.99993 -4.33012,-2.5 z"
         id="path54-9" /></g><g
       id="g54-2"
       transform="translate(283.62325,3.7499937)"><path
         style="opacity:1;fill:none;fill-opacity:1;stroke:#000000;stroke-width:0.79375;stroke-dasharray:none;stroke-opacity:1"
         d="M 103.92302,24.999993 129.90377,9.9999971 220.83641,62.499983 164.54478,94.999973 95.262768,54.999985 82.27239,62.499983 l 69.28201,39.999987 -21.65063,12.5 -90.932638,-52.499987 56.291636,-32.49999 69.282012,39.999988 12.99038,-7.499998 -47.63139,-27.499993 -4.33012,2.499998 z"
         id="path30-9" /><path
         style="opacity:1;fill:none;fill-opacity:1;stroke:#000000;stroke-width:0.79375;stroke-dasharray:none;stroke-opacity:1"
         d="m 164.54478,94.999973 v 4.999998 z"
         id="path35-1" /><path
         style="opacity:1;fill:none;fill-opacity:1;stroke:#000000;stroke-width:0.79375;stroke-dasharray:none;stroke-opacity:1"
         d="m 220.83641,62.499983 v 4.999998 z"
         id="path36-2" /><path
         style="opacity:1;fill:none;fill-opacity:1;stroke:#000000;stroke-width:0.79375;stroke-dasharray:none;stroke-opacity:1"
         d="m 151.5544,102.49997 v 5 z"
         id="path37-7" /><path
         style="opacity:1;fill:none;fill-opacity:1;stroke:#000000;stroke-width:0.79375;stroke-dasharray:none;stroke-opacity:1"
         d="m 129.90377,114.99997 v 4.99999 z"
         id="path38-0" /><path
         style="opacity:1;fill:none;fill-opacity:1;stroke:#000000;stroke-width:0.79375;stroke-dasharray:none;stroke-opacity:1"
         d="m 38.971132,62.499983 v 4.999998 z"
         id="path39-9" /><path
         style="opacity:1;fill:none;fill-opacity:1;stroke:#000000;stroke-width:0.79375;stroke-dasharray:none;stroke-opacity:1"
         d="M 95.262768,54.999985 V 69.999981 Z"
         id="path40-3" /><path
         style="opacity:1;fill:none;fill-opacity:1;stroke:#000000;stroke-width:0.79375;stroke-dasharray:none;stroke-opacity:1"
         d="M 129.90377,34.99999 V 49.999987 Z"
         id="path41-6" /><path
         style="opacity:1;fill:none;fill-opacity:1;stroke:#000000;stroke-width:0.79375;stroke-dasharray:none;stroke-opacity:1"
         d="m 125.57365,37.499988 v 9.999998 z"
         id="path42-0" /><path
         style="opacity:1;fill:none;fill-opacity:1;stroke:#000000;stroke-width:0.79375;stroke-dasharray:none;stroke-opacity:1"
         d="M 103.92302,24.999993 V 34.99999 Z"
         id="path43-6" /></g><g
       id="g11"><g
         id="g75"
         style="fill:none;fill-opacity:1"><path
           style="fill:none;fill-opacity:1;stroke:#000000;stroke-width:0.79375;stroke-dasharray:none;stroke-opacity:1"
           d="M 103.92302,24.999993 129.90377,9.9999971 220.83641,62.499983 164.54478,94.999973 95.262768,54.999985 82.27239,62.499983 l 69.28201,39.999987 -21.65063,12.5 -90.932638,-52.499987 56.291636,-32.49999 69.282012,39.999988 12.99038,-7.499998 -47.63139,-27.499993 -4.33012,2.499998 z"
           id="path30" /><path
           style="fill:none;fill-opacity:1;stroke:#000000;stroke-width:0.79375;stroke-dasharray:none;stroke-opacity:1"
           d="m 164.54478,94.999973 v 4.999998 z"
           id="path35" /><path
           style="fill:none;fill-opacity:1;stroke:#000000;stroke-width:0.79375;stroke-dasharray:none;stroke-opacity:1"
           d="m 220.83641,62.499983 v 4.999998 z"
           id="path36" /><path
           style="fill:none;fill-opacity:1;stroke:#000000;stroke-width:0.79375;stroke-dasharray:none;stroke-opacity:1"
           d="m 151.5544,102.49997 v 5 z"
           id="path37" /><path
           style="fill:none;fill-opacity:1;stroke:#000000;stroke-width:0.79375;stroke-dasharray:none;stroke-opacity:1"
           d="m 129.90377,114.99997 v 4.99999 z"
           id="path38" /><path
           style="fill:none;fill-opacity:1;stroke:#000000;stroke-width:0.79375;stroke-dasharray:none;stroke-opacity:1"
           d="m 38.971132,62.499983 v 4.999998 z"
           id="path39" /><path
           style="opacity:1;fill:none;fill-opacity:1;stroke:#000000;stroke-width:0.79375;stroke-dasharray:none;stroke-opacity:1"
           d="m 38.971132,67.499981 90.932638,52.499979 21.65063,-12.49999 -21.65063,12.49999 z"
           id="path63" /><path
           style="opacity:1;fill:none;fill-opacity:1;stroke:#000000;stroke-width:0.79375;stroke-dasharray:none;stroke-opacity:1"
           d="m 103.92302,24.999993 v 5 l 21.65063,12.499996 4.33012,-2.500001 43.30126,24.999992 4.33013,-2.499997 -47.63139,-27.499993 v 4.999998 l -4.33012,2.500001 v -5.000001 z"
           id="path64" /><path
           style="opacity:1;fill:none;fill-opacity:1;stroke:#000000;stroke-width:0.79375;stroke-dasharray:none;stroke-opacity:1"
           d="m 95.262768,54.999985 v 4.999997 L 86.602516,64.99998 82.27239,62.499983 Z"
           id="path65" /><path
           style="opacity:1;fill:none;fill-opacity:1;stroke:#000000;stroke-width:0.79375;stroke-dasharray:none;stroke-opacity:1"
           d="m 95.262768,59.999982 69.282012,39.999989 56.29163,-32.49999 -56.29163,32.49999 z"
           id="path66" /></g><path
         style="opacity:1;fill:#65b891;fill-opacity:1;stroke:#000000;stroke-width:0.79375;stroke-dasharray:none;stroke-opacity:1"
         d="m 38.971132,62.499983 90.932638,52.499987 21.65063,-12.5 -69.28201,-39.999987 12.990378,-7.499998 69.282012,39.999988 56.29163,-32.49999 -90.93264,-52.4999859 -25.98075,14.9999959 21.65063,12.499995 4.33012,-2.499998 47.63139,27.499993 -12.99038,7.499998 -69.282012,-39.999988 z"
         id="path75" /><path
         style="opacity:1;fill:#65b891;fill-opacity:1;stroke:#000000;stroke-width:0.79375;stroke-dasharray:none;stroke-opacity:1"
         d="m 103.92302,24.999993 v 5 l 21.65063,12.499996 v -5.000001 z"
         id="path76" /><path
         style="opacity:1;fill:#65b891;fill-opacity:1;stroke:#000000;stroke-width:0.79375;stroke-dasharray:none;stroke-opacity:1"
         d="m 125.57365,42.499989 4.33012,-2.500001 V 34.99999 l -4.33012,2.499998 z"
         id="path77" /><path
         style="opacity:1;fill:#65b891;fill-opacity:1;stroke:#000000;stroke-width:0.79375;stroke-dasharray:none;stroke-opacity:1"
         d="m 129.90377,34.99999 47.63139,27.499993 -4.33013,2.499997 -43.30126,-24.999992 z"
         id="path78" /><path
         style="opacity:1;fill:#65b891;fill-opacity:1;stroke:#000000;stroke-width:0.79375;stroke-dasharray:none;stroke-opacity:1"
         d="m 86.602516,64.99998 8.660252,-4.999998 V 54.999985 L 82.27239,62.499983 Z"
         id="path79" /><path
         style="opacity:1;fill:#65b891;fill-opacity:1;stroke:#000000;stroke-width:0.79375;stroke-dasharray:none;stroke-opacity:1"
         d="M 95.262768,59.999982 164.54478,99.999971 V 94.999973 L 95.262768,54.999985 Z"
         id="path80" /><path
         style="opacity:1;fill:#65b891;fill-opacity:1;stroke:#000000;stroke-width:0.79375;stroke-dasharray:none;stroke-opacity:1"
         d="m 164.54478,99.999971 56.29163,-32.49999 v -4.999998 l -56.29163,32.49999 z"
         id="path81" /><path
         style="opacity:1;fill:#65b891;fill-opacity:1;stroke:#000000;stroke-width:0.79375;stroke-dasharray:none;stroke-opacity:1"
         d="m 151.5544,102.49997 v 5 l -21.65063,12.49999 v -4.99999 z"
         id="path82" /><path
         style="opacity:1;fill:#65b891;fill-opacity:1;stroke:#000000;stroke-width:0.79375;stroke-dasharray:none;stroke-opacity:1"
         d="m 38.971132,62.499983 v 4.999998 l 90.932638,52.499979 v -4.99999 z"
         id="path83" /></g><g
       id="g10"
       style="stroke-width:1;stroke-dasharray:none"><g
         id="g73"
         style="stroke-width:1;stroke-dasharray:none"><path
           style="fill:none;fill-opacity:1;stroke:#000000;stroke-width:1;stroke-dasharray:none;stroke-opacity:1"
           d="M 30.310881,77.499976 V 187.49995 l 90.932639,52.49998 V 214.99994 L 51.96151,174.99995 V 89.999975 Z"
           id="path17" /><path
           style="fill:none;fill-opacity:1;stroke:#000000;stroke-width:1;stroke-dasharray:none;stroke-opacity:1"
           d="m 30.310881,77.499976 4.330125,-2.499997 z"
           id="path44" /><path
           style="fill:none;fill-opacity:1;stroke:#000000;stroke-width:1;stroke-dasharray:none;stroke-opacity:1"
           d="m 51.96151,89.999975 4.330125,-2.5 z"
           id="path45" /><path
           style="fill:none;fill-opacity:1;stroke:#000000;stroke-width:1;stroke-dasharray:none;stroke-opacity:1"
           d="m 121.24352,214.99994 4.33013,-2.5 z"
           id="path47" /><path
           style="fill:none;fill-opacity:1;stroke:#000000;stroke-width:1;stroke-dasharray:none;stroke-opacity:1"
           d="m 121.24352,239.99993 4.33013,-2.5 z"
           id="path48" /><path
           style="opacity:1;fill:none;fill-opacity:1;stroke:#000000;stroke-width:1;stroke-dasharray:none;stroke-opacity:1"
           d="m 34.641006,74.999979 21.650629,12.499996 v 84.999975 l 69.282015,39.99999 v 24.99999 l -4.33013,2.5 -90.932639,-52.49998 V 77.499976 Z"
           id="path67" /><path
           style="opacity:1;fill:none;fill-opacity:1;stroke:#000000;stroke-width:1;stroke-dasharray:none;stroke-opacity:1"
           d="m 51.96151,174.99995 4.330125,-2.5 z"
           id="path70" /></g><path
         style="opacity:1;fill:#a67b5b;fill-opacity:1;stroke:#000000;stroke-width:1;stroke-dasharray:none;stroke-opacity:1"
         d="M 30.310881,77.499976 51.96151,89.999975 v 84.999975 l 69.28201,39.99999 v 24.99999 L 30.310881,187.49995 Z"
         id="path85" /><path
         style="opacity:1;fill:#a67b5b;fill-opacity:1;stroke:#000000;stroke-width:1;stroke-dasharray:none;stroke-opacity:1"
         d="m 30.310881,77.499976 4.330125,-2.499997 21.650629,12.499996 -4.330125,2.5 z"
         id="path86" /><path
         style="opacity:1;fill:#a67b5b;fill-opacity:1;stroke:#000000;stroke-width:1;stroke-dasharray:none;stroke-opacity:1"
         d="m 56.291635,87.499975 v 84.999975 l -4.330125,2.5 V 89.999975 Z"
         id="path87" /><path
         style="opacity:1;fill:#a67b5b;fill-opacity:1;stroke:#000000;stroke-width:1;stroke-dasharray:none;stroke-opacity:1"
         d="m 125.57365,212.49994 -4.33013,2.5 -69.28201,-39.99999 4.330125,-2.5 z"
         id="path88" /><path
         style="opacity:1;fill:#a67b5b;fill-opacity:1;stroke:#000000;stroke-width:1;stroke-dasharray:none;stroke-opacity:1"
         d="m 121.24352,239.99993 4.33013,-2.5 v -24.99999 l -4.33013,2.5 z"
         id="path89" /></g><g
       id="g56"><path
         style="fill:#a67b5b;fill-opacity:1;stroke:#000000;stroke-width:1;stroke-dasharray:none;stroke-opacity:1"
         d="m 173.20503,194.99994 -4.33013,-2.5 -8.66025,5 v 5 z"
         id="path107" /><path
         style="fill:#a67b5b;fill-opacity:1;stroke:#000000;stroke-width:1;stroke-dasharray:none;stroke-opacity:1"
         d="m 168.8749,137.49996 v 54.99998 l 4.33013,2.5 v -59.99998 z"
         id="path108" /><path
         style="fill:#a67b5b;fill-opacity:1;stroke:#000000;stroke-width:1;stroke-dasharray:none;stroke-opacity:1"
         d="m 138.56402,154.99996 -4.33012,-2.5 v -25 l 4.33012,2.5 z"
         id="path109" /><path
         style="fill:#a67b5b;fill-opacity:1;stroke:#000000;stroke-width:1;stroke-dasharray:none;stroke-opacity:1"
         d="m 229.49666,77.499976 -4.33012,-2.499997 -90.93264,52.499981 4.33012,2.5 z"
         id="path110" /><path
         style="fill:#a67b5b;stroke:#000000;stroke-width:1"
         d="m 229.49666,77.499976 -90.93264,52.499984 v 25 l 34.64101,-20 v 59.99998 l -12.99038,7.5 v -44.99999 l -21.65063,12.5 v 69.99998 l 56.29164,-32.49999 v -84.99997 l 34.641,-20 z"
         id="path1" /><path
         style="fill:#a67b5b;stroke:#000000;stroke-width:1"
         d="m 138.56402,169.99995 -4.33012,-2.5 21.65063,-12.49999 4.33012,2.49999 z"
         id="path2" /><path
         style="fill:#a67b5b;stroke:#000000;stroke-width:1"
         d="m 134.2339,167.49995 v 69.99998 l 4.33012,2.5 v -69.99998 z"
         id="path3" /></g><g
       id="g55"><path
         style="fill:#a67b5b;stroke:#000000;stroke-width:1"
         d="m 229.49666,187.49995 -25.98075,14.99999 v -74.99998 l 25.98075,-14.99999 v 14.99999 l -12.99037,7.5 v 15 l 8.66025,-5 v 14.99999 l -8.66025,5 v 15 l 12.99037,-7.5 z"
         id="path4" /><path
         style="fill:#a67b5b;stroke:#000000;stroke-width:1"
         d="m 225.16654,144.99996 -4.33013,-2.5 -4.33012,2.5 v 5 z"
         id="path5" /><path
         style="fill:#a67b5b;stroke:#000000;stroke-width:1"
         d="m 229.49666,172.49995 -4.33012,-2.5 -8.66025,5 v 5 z"
         id="path6" /><path
         style="fill:#a67b5b;stroke:#000000;stroke-width:1"
         d="m 203.51591,202.49994 -4.33013,-2.5 v -74.99998 l 4.33013,2.5 z"
         id="path7" /><path
         style="fill:#a67b5b;stroke:#000000;stroke-width:1"
         d="m 229.49666,112.49997 -4.33012,-2.5 -25.98076,14.99999 4.33013,2.5 z"
         id="path8" /></g><g
       id="g22"
       transform="translate(279.29311,6.2500051)"><path
         style="fill:#a67b5b;stroke:#000000;stroke-width:1;stroke-dasharray:none"
         d="m 60.621761,94.999973 v 74.999977 l 60.621759,34.99999 v -14.99999 l -47.631381,-27.5 v -44.99999 l 47.631381,27.5 v -15 z"
         id="path23" /><path
         style="fill:#a67b5b;stroke:#000000;stroke-width:1;stroke-dasharray:none"
         d="m 121.24352,204.99994 4.33013,-2.5 v -14.99999 l -4.33013,2.5 z"
         id="path24" /><path
         style="fill:#a67b5b;stroke:#000000;stroke-width:1;stroke-dasharray:none"
         d="m 73.612139,162.49995 4.330125,-2.5 47.631386,27.5 -4.33013,2.5 z"
         id="path25" /><path
         style="fill:#a67b5b;stroke:#000000;stroke-width:1;stroke-dasharray:none"
         d="m 73.612139,162.49995 4.330125,-2.5 v -39.99999 l -4.330125,-2.5 z"
         id="path26" /><path
         style="fill:#a67b5b;stroke:#000000;stroke-width:1;stroke-dasharray:none"
         d="m 121.24352,144.99996 4.33013,-2.5 v -15 l -4.33013,2.5 z"
         id="path27" /><path
         style="fill:#a67b5b;stroke:#000000;stroke-width:1;stroke-dasharray:none"
         d="m 60.621761,94.999973 4.330126,-2.5 60.621763,34.999987 -4.33013,2.5 z"
         id="path28" /><path
         style="fill:#a67b5b;stroke:#000000;stroke-width:1;stroke-dasharray:none"
         d="m 86.602516,139.99996 v 5 l 4.330126,-2.5 z"
         id="path55" /><path
         style="fill:#a67b5b;stroke:#000000;stroke-width:1;stroke-dasharray:none"
         d="m 86.602516,149.99996 v 5 l 4.330126,-2.5 z"
         id="path58" /><path
         style="fill:#a67b5b;stroke:#000000;stroke-width:1"
         d="m 112.58327,164.99995 4.33013,-2.5 v -5 l -4.33013,2.5 z"
         id="path10" /><path
         style="fill:#a67b5b;stroke:#000000;stroke-width:1"
         d="m 90.932642,142.49996 25.980758,14.99999 -4.33013,2.5 -25.980754,-14.99999 z"
         id="path18" /><path
         style="fill:#a67b5b;stroke:#000000;stroke-width:1"
         d="m 116.9134,152.49996 -34.64101,-20 v 24.99999 l 34.64101,20 v -5 L 86.602516,154.99996 v -5 l 25.980754,14.99999 v -5 L 86.602516,144.99996 v -5 l 30.310884,17.49999 z"
         id="path9" /><path
         style="fill:#a67b5b;stroke:#000000;stroke-width:1"
         d="m 116.9134,177.49995 4.33012,-2.5 v -5 l -4.33012,2.5 z"
         id="path19" /><path
         style="fill:#a67b5b;stroke:#000000;stroke-width:1"
         d="m 121.24352,169.99995 -30.310878,-17.49999 -4.330126,2.5 30.310884,17.49999 z"
         id="path20" /><path
         style="fill:#a67b5b;stroke:#000000;stroke-width:1"
         d="m 82.27239,132.49996 4.330126,-2.5 34.641004,20 -4.33012,2.5 z"
         id="path21" /><path
         style="fill:#a67b5b;stroke:#000000;stroke-width:1"
         d="m 116.9134,157.49995 4.33012,-2.49999 v -5 l -4.33012,2.5 z"
         id="path22" /></g><g
       id="g54"><path
         style="fill:#a67b5b;stroke:#000000;stroke-width:1"
         d="m 60.621761,94.999973 v 74.999977 l 25.980755,15 v -15 l -12.990377,-7.5 v -44.99999 l 12.990377,7.5 v -14.99999 z"
         id="path29" /><path
         style="fill:#a67b5b;stroke:#000000;stroke-width:1"
         d="m 86.602516,184.99995 4.330126,-2.5 v -15 l -4.330126,2.5 z"
         id="path32" /><path
         style="fill:#a67b5b;stroke:#000000;stroke-width:1"
         d="m 73.612139,162.49995 4.330125,-2.5 12.990378,7.5 -4.330126,2.5 z"
         id="path33" /><path
         style="fill:#a67b5b;stroke:#000000;stroke-width:1"
         d="m 73.612139,162.49995 4.330125,-2.5 v -39.99999 l -4.330125,-2.5 z"
         id="path34" /><path
         style="fill:#a67b5b;stroke:#000000;stroke-width:1"
         d="m 86.602516,124.99996 4.330126,-2.49999 v -15 l -4.330126,2.5 z"
         id="path40" /><path
         style="fill:#a67b5b;stroke:#000000;stroke-width:1"
         d="m 60.621761,94.999973 4.330126,-2.5 25.980755,14.999997 -4.330126,2.5 z"
         id="path41" /></g><g
       id="g53"><path
         style="fill:#a67b5b;stroke:#000000;stroke-width:1"
         d="m 95.262768,189.99995 25.980752,14.99999 v -14.99999 l -12.99038,-7.5 v -15 l 8.66026,5 v -15 l -8.66026,-4.99999 v -15 l 12.99038,7.5 v -15 L 95.262768,114.99997 Z"
         id="path31" /><path
         style="fill:#a67b5b;stroke:#000000;stroke-width:1"
         d="m 121.24352,204.99994 4.33013,-2.5 v -14.99999 l -4.33013,2.5 z"
         id="path42" /><path
         style="fill:#a67b5b;stroke:#000000;stroke-width:1"
         d="m 108.25314,182.49995 4.33013,-2.5 12.99038,7.5 -4.33013,2.5 z"
         id="path43" /><path
         style="fill:#a67b5b;stroke:#000000;stroke-width:1"
         d="m 108.25314,182.49995 4.33013,-2.5 v -10 l -4.33013,-2.5 z"
         id="path46" /><path
         style="fill:#a67b5b;stroke:#000000;stroke-width:1"
         d="m 116.9134,172.49995 4.33012,-2.5 v -14.99999 l -4.33012,2.49999 z"
         id="path49" /><path
         style="fill:#a67b5b;stroke:#000000;stroke-width:1"
         d="m 116.9134,157.49995 4.33012,-2.49999 -8.66025,-5 -4.33013,2.5 z"
         id="path50" /><path
         style="fill:#a67b5b;stroke:#000000;stroke-width:1"
         d="m 108.25314,152.49996 4.33013,-2.5 v -10 l -4.33013,-2.5 z"
         id="path51" /><path
         style="fill:#a67b5b;stroke:#000000;stroke-width:1"
         d="m 121.24352,144.99996 4.33013,-2.5 v -15 l -4.33013,2.5 z"
         id="path52" /><path
         style="fill:#a67b5b;stroke:#000000;stroke-width:1"
         d="m 95.262768,114.99997 4.330125,-2.5 25.980757,14.99999 -4.33013,2.5 z"
         id="path53" /></g></g></svg>
